<svg width="451" height="338" viewBox="0 0 451 338" fill="none" xmlns="http://www.w3.org/2000/svg">
<g filter="url(#filter0_di_43_1083)">
<path fill-rule="evenodd" clip-rule="evenodd" d="M244.66 1.44814C237.546 0.493521 230.279 0 222.891 0C136.718 0 66.86 67.1573 66.86 150C66.86 232.843 136.718 300 222.891 300C287.703 300 343.286 262.012 366.86 207.933C365.339 207.978 363.812 208 362.28 208C283.574 208 219.771 148.902 219.771 75.9999C219.771 48.3369 228.958 22.6614 244.66 1.44814Z" fill="url(#paint0_linear_43_1083)"/>
</g>
<path d="M16.86 200.146C86.86 183.006 156.86 183.006 226.86 200.146C296.86 217.285 366.86 217.285 436.86 200.146" stroke="url(#paint1_linear_43_1083)" stroke-width="27.7134" stroke-linecap="round"/>
<path d="M13.86 256.854C83.86 239.715 153.86 239.715 223.86 256.854C293.86 273.993 363.86 273.993 433.86 256.854" stroke="url(#paint2_linear_43_1083)" stroke-width="27.7134" stroke-linecap="round"/>
<path d="M13.86 310.854C83.86 293.715 153.86 293.715 223.86 310.854C293.86 327.993 363.86 327.993 433.86 310.854" stroke="url(#paint3_linear_43_1083)" stroke-width="27.7134" stroke-linecap="round"/>
<defs>
<filter id="filter0_di_43_1083" x="41.86" y="0" width="329" height="315" filterUnits="userSpaceOnUse" color-interpolation-filters="sRGB">
<feFlood flood-opacity="0" result="BackgroundImageFix"/>
<feColorMatrix in="SourceAlpha" type="matrix" values="0 0 0 0 0 0 0 0 0 0 0 0 0 0 0 0 0 0 127 0" result="hardAlpha"/>
<feOffset dy="4"/>
<feGaussianBlur stdDeviation="2"/>
<feComposite in2="hardAlpha" operator="out"/>
<feColorMatrix type="matrix" values="0 0 0 0 0 0 0 0 0 0 0 0 0 0 0 0 0 0 0.25 0"/>
<feBlend mode="normal" in2="BackgroundImageFix" result="effect1_dropShadow_43_1083"/>
<feBlend mode="normal" in="SourceGraphic" in2="effect1_dropShadow_43_1083" result="shape"/>
<feColorMatrix in="SourceAlpha" type="matrix" values="0 0 0 0 0 0 0 0 0 0 0 0 0 0 0 0 0 0 127 0" result="hardAlpha"/>
<feOffset dx="-25" dy="15"/>
<feGaussianBlur stdDeviation="12.5"/>
<feComposite in2="hardAlpha" operator="arithmetic" k2="-1" k3="1"/>
<feColorMatrix type="matrix" values="0 0 0 0 0.607843 0 0 0 0 0.529412 0 0 0 0 0.921569 0 0 0 1 0"/>
<feBlend mode="normal" in2="shape" result="effect2_innerShadow_43_1083"/>
</filter>
<linearGradient id="paint0_linear_43_1083" x1="84.5436" y1="-3.43285e-05" x2="297.796" y2="349.608" gradientUnits="userSpaceOnUse">
<stop stop-color="#9B87EB"/>
<stop offset="0.659096" stop-color="#3010AC"/>
</linearGradient>
<linearGradient id="paint1_linear_43_1083" x1="-9.64002" y1="187" x2="420.36" y2="213" gradientUnits="userSpaceOnUse">
<stop stop-color="#F2F2F2"/>
<stop offset="1" stop-color="#CFCFCF"/>
</linearGradient>
<linearGradient id="paint2_linear_43_1083" x1="-12.64" y1="243.709" x2="417.36" y2="269.709" gradientUnits="userSpaceOnUse">
<stop stop-color="#F2F2F2"/>
<stop offset="1" stop-color="#CFCFCF"/>
</linearGradient>
<linearGradient id="paint3_linear_43_1083" x1="-12.64" y1="297.709" x2="417.36" y2="323.709" gradientUnits="userSpaceOnUse">
<stop stop-color="#F2F2F2"/>
<stop offset="1" stop-color="#CFCFCF"/>
</linearGradient>
</defs>
</svg>
