<svg width="437" height="476" viewBox="0 0 437 476" fill="none" xmlns="http://www.w3.org/2000/svg">
<ellipse cx="250.481" cy="460.432" rx="2.32004" ry="3.36776" fill="#CBAA8A"/>
<ellipse cx="293.848" cy="382.207" rx="3.92621" ry="5.69928" fill="#CBAA8A"/>
<ellipse cx="183.423" cy="394.683" rx="4.06064" ry="5.89442" fill="#CBAA8A"/>
<ellipse cx="376.298" cy="303.777" rx="6.06778" ry="8.80799" fill="#CBAA8A"/>
<ellipse opacity="0.75" cx="73.0951" cy="23.5879" rx="73.0951" ry="23.5879" transform="matrix(0.919203 -0.393783 0.220624 0.975359 202.474 342.819)" fill="url(#paint0_linear_36_862)" fill-opacity="0.34"/>
<path opacity="0.75" fill-rule="evenodd" clip-rule="evenodd" d="M280.704 391.753C297.852 381.944 309.135 368.999 307.149 360.224C304.762 349.667 284.078 349.14 260.952 359.047C237.826 368.954 221.014 385.544 223.402 396.101C224.824 402.387 232.733 405.117 243.781 404.205C243.948 412.356 247.222 423.275 252.249 435.891C265.68 460.791 303.162 478.352 309.211 474.965C311.17 473.869 308.807 472.272 304.645 469.461C295.955 463.589 279.418 452.417 278.001 429.424C277.313 418.267 278.69 409.049 279.732 402.084C280.381 397.739 280.9 394.27 280.704 391.753Z" fill="url(#paint1_linear_36_862)" fill-opacity="0.18"/>
<ellipse opacity="0.75" cx="86.008" cy="30.7463" rx="86.008" ry="30.7463" transform="matrix(0.919203 -0.393783 0.220624 0.975359 198.548 298.849)" fill="url(#paint2_linear_36_862)" fill-opacity="0.7"/>
<g filter="url(#filter0_d_36_862)">
<ellipse cx="129.012" cy="36.1152" rx="129.012" ry="36.1152" transform="matrix(0.919203 -0.393783 0.220624 0.975359 117.662 271.319)" fill="url(#paint3_linear_36_862)" fill-opacity="0.9" shape-rendering="crispEdges"/>
</g>
<g filter="url(#filter1_f_36_862)">
<path fill-rule="evenodd" clip-rule="evenodd" d="M259.123 258.568C338.403 224.166 397.481 173.621 391.078 145.674C390.202 141.853 388.149 138.653 385.053 136.063C398.491 137.151 407 141.436 408.743 149.142C414.076 172.718 354.056 219.395 274.685 253.397C256.768 261.072 239.397 267.446 223.177 272.443C234.791 268.528 246.839 263.898 259.123 258.568Z" fill="url(#paint4_linear_36_862)" fill-opacity="0.9"/>
</g>
<g filter="url(#filter2_f_36_862)">
<path fill-rule="evenodd" clip-rule="evenodd" d="M266.295 261.609C149.768 306.978 49.8571 313.908 42.0898 276.799C40.5731 269.553 42.6806 261.157 47.9199 251.986C34.5596 267.467 28.1562 281.307 30.5831 292.036C38.6238 327.583 140.552 315.526 258.246 265.107C260.944 263.951 263.627 262.785 266.295 261.609Z" fill="url(#paint5_linear_36_862)" fill-opacity="0.9"/>
</g>
<g filter="url(#filter3_d_36_862)">
<ellipse cx="163.154" cy="46.4404" rx="163.154" ry="46.4404" transform="matrix(0.919203 -0.393783 0.220624 0.975359 58.4077 223.15)" fill="url(#paint6_linear_36_862)" fill-opacity="0.9" shape-rendering="crispEdges"/>
</g>
<g filter="url(#filter4_f_36_862)">
<path fill-rule="evenodd" clip-rule="evenodd" d="M346.514 119.814C395.457 85.578 423.932 54.2996 419.56 34.9694C411.294 -1.57137 288.78 18.4205 145.917 79.6226C117.127 91.9562 89.7075 105.022 64.343 118.324C80.0294 110.793 96.2794 103.408 112.97 96.2576C262.081 32.3791 389.929 11.4079 398.527 49.4171C402.297 66.0868 382.505 91.3326 346.514 119.814Z" fill="url(#paint7_linear_36_862)"/>
</g>
<g filter="url(#filter5_d_36_862)">
<ellipse cx="192.66" cy="46.4404" rx="192.66" ry="46.4404" transform="matrix(0.919203 -0.393783 0.220624 0.975359 0 178.258)" fill="url(#paint8_linear_36_862)"/>
</g>
<defs>
<filter id="filter0_d_36_862" x="123.393" y="193.916" width="241.65" height="127.581" filterUnits="userSpaceOnUse" color-interpolation-filters="sRGB">
<feFlood flood-opacity="0" result="BackgroundImageFix"/>
<feColorMatrix in="SourceAlpha" type="matrix" values="0 0 0 0 0 0 0 0 0 0 0 0 0 0 0 0 0 0 127 0" result="hardAlpha"/>
<feOffset dy="1.96481"/>
<feGaussianBlur stdDeviation="0.982403"/>
<feComposite in2="hardAlpha" operator="out"/>
<feColorMatrix type="matrix" values="0 0 0 0 0 0 0 0 0 0 0 0 0 0 0 0 0 0 0.25 0"/>
<feBlend mode="normal" in2="BackgroundImageFix" result="effect1_dropShadow_36_862"/>
<feBlend mode="normal" in="SourceGraphic" in2="effect1_dropShadow_36_862" result="shape"/>
</filter>
<filter id="filter1_f_36_862" x="212.935" y="125.821" width="206.379" height="156.864" filterUnits="userSpaceOnUse" color-interpolation-filters="sRGB">
<feFlood flood-opacity="0" result="BackgroundImageFix"/>
<feBlend mode="normal" in="SourceGraphic" in2="BackgroundImageFix" result="shape"/>
<feGaussianBlur stdDeviation="5.12078" result="effect1_foregroundBlur_36_862"/>
</filter>
<filter id="filter2_f_36_862" x="15.9902" y="237.899" width="264.392" height="88.6419" filterUnits="userSpaceOnUse" color-interpolation-filters="sRGB">
<feFlood flood-opacity="0" result="BackgroundImageFix"/>
<feBlend mode="normal" in="SourceGraphic" in2="BackgroundImageFix" result="shape"/>
<feGaussianBlur stdDeviation="7.04383" result="effect1_foregroundBlur_36_862"/>
</filter>
<filter id="filter3_d_36_862" x="66.3333" y="125.583" width="304.583" height="161.161" filterUnits="userSpaceOnUse" color-interpolation-filters="sRGB">
<feFlood flood-opacity="0" result="BackgroundImageFix"/>
<feColorMatrix in="SourceAlpha" type="matrix" values="0 0 0 0 0 0 0 0 0 0 0 0 0 0 0 0 0 0 127 0" result="hardAlpha"/>
<feOffset dy="1.96481"/>
<feGaussianBlur stdDeviation="0.982403"/>
<feComposite in2="hardAlpha" operator="out"/>
<feColorMatrix type="matrix" values="0 0 0 0 0 0 0 0 0 0 0 0 0 0 0 0 0 0 0.25 0"/>
<feBlend mode="normal" in2="BackgroundImageFix" result="effect1_dropShadow_36_862"/>
<feBlend mode="normal" in="SourceGraphic" in2="effect1_dropShadow_36_862" result="shape"/>
</filter>
<filter id="filter4_f_36_862" x="47.6422" y="-3.8147e-06" width="389.059" height="136.515" filterUnits="userSpaceOnUse" color-interpolation-filters="sRGB">
<feFlood flood-opacity="0" result="BackgroundImageFix"/>
<feBlend mode="normal" in="SourceGraphic" in2="BackgroundImageFix" result="shape"/>
<feGaussianBlur stdDeviation="8.35043" result="effect1_foregroundBlur_36_862"/>
</filter>
<filter id="filter5_d_36_862" x="7.97977" y="59.3141" width="358.72" height="180.676" filterUnits="userSpaceOnUse" color-interpolation-filters="sRGB">
<feFlood flood-opacity="0" result="BackgroundImageFix"/>
<feColorMatrix in="SourceAlpha" type="matrix" values="0 0 0 0 0 0 0 0 0 0 0 0 0 0 0 0 0 0 127 0" result="hardAlpha"/>
<feOffset dy="1.96481"/>
<feGaussianBlur stdDeviation="0.982403"/>
<feComposite in2="hardAlpha" operator="out"/>
<feColorMatrix type="matrix" values="0 0 0 0 0 0 0 0 0 0 0 0 0 0 0 0 0 0 0.25 0"/>
<feBlend mode="normal" in2="BackgroundImageFix" result="effect1_dropShadow_36_862"/>
<feBlend mode="normal" in="SourceGraphic" in2="effect1_dropShadow_36_862" result="shape"/>
</filter>
<linearGradient id="paint0_linear_36_862" x1="1.96812" y1="23.3441" x2="145.365" y2="22.5789" gradientUnits="userSpaceOnUse">
<stop stop-color="#F3D9C4"/>
<stop offset="1" stop-color="#CFAD90"/>
</linearGradient>
<linearGradient id="paint1_linear_36_862" x1="243.721" y1="430.235" x2="266.744" y2="423.327" gradientUnits="userSpaceOnUse">
<stop stop-color="#F3D9C4"/>
<stop offset="1" stop-color="#CFAD90"/>
</linearGradient>
<linearGradient id="paint2_linear_36_862" x1="2.31581" y1="30.4285" x2="171.046" y2="29.6157" gradientUnits="userSpaceOnUse">
<stop stop-color="#F3D9C4"/>
<stop offset="1" stop-color="#CFAD90"/>
</linearGradient>
<linearGradient id="paint3_linear_36_862" x1="3.47372" y1="35.7419" x2="256.566" y2="34.185" gradientUnits="userSpaceOnUse">
<stop stop-color="#F3D9C4" stop-opacity="0.75"/>
<stop offset="1" stop-color="#CFAD90"/>
</linearGradient>
<linearGradient id="paint4_linear_36_862" x1="125.087" y1="270.175" x2="419.211" y2="201.77" gradientUnits="userSpaceOnUse">
<stop stop-color="#F3D9C4" stop-opacity="0.75"/>
<stop offset="1" stop-color="#CFAD90"/>
</linearGradient>
<linearGradient id="paint5_linear_36_862" x1="36.1705" y1="288.912" x2="472.311" y2="187.524" gradientUnits="userSpaceOnUse">
<stop stop-color="#F3D9C4"/>
<stop offset="1" stop-color="#CFAD90"/>
</linearGradient>
<linearGradient id="paint6_linear_36_862" x1="4.393" y1="45.9604" x2="324.463" y2="44.024" gradientUnits="userSpaceOnUse">
<stop stop-color="#F3D9C4"/>
<stop offset="1" stop-color="#CFAD90"/>
</linearGradient>
<linearGradient id="paint7_linear_36_862" x1="19.6606" y1="95.2908" x2="499.17" y2="53.6459" gradientUnits="userSpaceOnUse">
<stop offset="0.0941855" stop-color="#F9E7D9"/>
<stop offset="1" stop-color="#ECC7A8"/>
</linearGradient>
<linearGradient id="paint8_linear_36_862" x1="5.18748" y1="45.9604" x2="383.138" y2="43.2603" gradientUnits="userSpaceOnUse">
<stop stop-color="#F3D9C4"/>
<stop offset="1" stop-color="#CFAD90"/>
</linearGradient>
</defs>
</svg>
